# File created by Blade
# Date/Time:  Tue Jan 27 19:23:16 2015
# Frame Rate: 120.000 fps
#------------------------------------------------------
:FULLY-SPECIFIED
:DEGREES
2190
root 3.690907 32.355984 -0.065504 -4.172388 4.403085 0.887114
Spine -0.466199 11.473416 0.948616
Head 7.041125 -37.304600 -6.023248
LeftShoulder -0.854540 -8.973403 24.482571
LeftArm -4.139171 42.743459 -102.992003
LeftForeArm 2.820042 -0.000000 13.088304
LeftHand 10.067185 -0.000000 -7.445867
LeftHandThumb1 -26.253704 0.000000 33.147579
RightShoulder -6.509193 13.003527 -38.355232
RightArm 96.999085 54.373778 150.605731
RightForeArm 31.895017 -0.000000 98.089442
RightHand 31.176198 0.000000 -13.252581
RightHandThumb1 -24.326973 -0.000000 -32.862282
LeftUpLeg 9.143297 -0.199741 -0.252010
LeftLeg 2.588060 -0.000000 -0.000000
LeftFoot -16.481684 12.025654 -22.656317
LeftToeBase 16.872370 -0.000000 -0.000000
RightUpLeg 9.868081 -11.708645 0.744418
RightLeg -0.439864 -0.000000 0.000000
RightFoot -12.212507 -14.107299 14.055756
RightToeBase 11.046236 -0.000000 -0.000000
2191
root 3.695032 32.358495 -0.037398 -4.234629 4.596568 0.828320
Spine -0.505417 11.357428 1.134798
Head 7.522068 -37.050043 -6.655033
LeftShoulder -0.864941 -9.027072 24.583866
LeftArm -4.258071 42.720331 -103.171302
LeftForeArm 2.884971 -0.000000 13.321089
LeftHand 10.014333 -0.000000 -7.537662
LeftHandThumb1 -26.253704 0.000000 33.147579
RightShoulder -6.744668 12.925920 -38.348684
RightArm 97.830230 54.535091 150.603436
RightForeArm 32.424659 -0.000000 97.817067
RightHand 31.429183 -0.000000 -13.505606
RightHandThumb1 -24.326973 -0.000000 -32.862282
LeftUpLeg 9.260108 -1.302106 -0.377859
LeftLeg 2.555719 -0.000000 -0.000000
LeftFoot -16.883931 12.780215 -23.047693
LeftToeBase 16.929379 -0.000000 -0.000000
RightUpLeg 10.045024 -12.010780 0.750087
RightLeg -0.522577 -0.000000 0.000000
RightFoot -12.118985 -14.082475 13.986535
RightToeBase 11.025724 -0.000000 -0.000000
2192
root 3.728430 32.362786 -0.005575 -4.308987 4.763482 0.902418
Spine -0.535725 11.261975 1.273147
Head 7.992527 -36.874289 -7.426922
LeftShoulder -0.889749 -9.041393 24.581514
LeftArm -4.385542 42.738011 -103.334284
LeftForeArm 3.039895 -0.000000 13.557911
LeftHand 9.976082 -0.000000 -6.659666
LeftHandThumb1 -26.253704 0.000000 33.147579
RightShoulder -6.950721 12.822617 -38.395520
RightArm 98.465528 54.767627 150.362903
RightForeArm 32.815154 -0.000000 97.554409
RightHand 31.639338 -0.000000 -13.532159
RightHandThumb1 -24.326973 -0.000000 -32.862282
LeftUpLeg 9.371009 -1.246719 -0.475503
LeftLeg 2.563323 -0.000000 -0.000000
LeftFoot -16.734775 12.585548 -22.962550
LeftToeBase 16.949854 -0.000000 -0.000000
RightUpLeg 10.261450 -12.212719 0.556809
RightLeg -0.606866 -0.000000 0.000000
RightFoot -12.129916 -13.982000 14.069301
RightToeBase 11.041213 -0.000000 -0.000000
2193
root 3.744430 32.366443 0.017416 -4.318700 5.012244 0.921315
Spine -0.626408 11.078373 1.381312
Head 8.380750 -36.685234 -8.032316
LeftShoulder -0.898635 -9.027449 24.613930
LeftArm -4.453051 42.728666 -103.425485
LeftForeArm 3.063835 -0.000000 13.813256
LeftHand 9.967328 -0.000000 -6.366084
LeftHandThumb1 -26.253704 0.000000 33.147579
RightShoulder -7.156702 12.856787 -38.429122
RightArm 98.876480 55.215651 149.934916
RightForeArm 32.967378 0.000000 97.321501
RightHand 31.708301 -0.000000 -13.629512
RightHandThumb1 -24.326973 -0.000000 -32.862282
LeftUpLeg 9.408638 -1.530116 -0.545025
LeftLeg 2.526300 -0.000000 -0.000000
LeftFoot -16.708894 12.641155 -22.969468
LeftToeBase 16.999937 -0.000000 -0.000000
RightUpLeg 10.374818 -12.408143 0.481315
RightLeg -0.650686 -0.000000 0.000000
RightFoot -12.130880 -14.015490 14.108088
RightToeBase 11.044854 -0.000000 -0.000000
